<?xml version="1.0" encoding="UTF-8"?>
<svg width="1200pt" height="1200pt" version="1.1" viewBox="0 0 1200 1200" xmlns="http://www.w3.org/2000/svg">
 <path d="m557.2 102.25c-80.051 6.1484-159.75 34.051-230.1 80.551h0.003906c-69.73 45.938-126.64 108.84-165.4 182.8-10.398 20.051-10.699 21.102-10.699 37 0 13.801 0.80078 17.852 5 25.301 5.5 9.8516 14.699 17 25.75 20.051 4.75 1.3516 148.5 2.0508 416.4 2.0508 452.45 0 417.05 1.0508 436.1-12.898 12.898-9.4492 18.648-21.75 17.148-36.75-1.3984-14.25-16.801-44.75-40.5-80.352-46.398-69.801-108.2-124.8-184.9-164.75-82.5-42.949-171.35-60.5-268.8-53m103.15 102.65c86.801 13.25 166.3 55.551 228.6 121.55 10.449 11.102 19.051 20.949 19.051 21.898 0 0.89844-138.6 1.6484-308 1.6484s-308-0.75-308-1.6484c0-3.0508 37.852-41.898 53.75-55.148v-0.003906c35.027-28.555 74.215-51.586 116.2-68.301 27.273-9.8672 55.516-16.824 84.25-20.75 8.6016-0.99609 17.199-1.9961 25.801-3 13.352-1.5508 69.102 0.80078 88.352 3.75m-429.65 297.95-0.003906 0.003906c-10.773 2.8633-19.898 10.02-25.25 19.797-3.6992 6.9492-4.4492 11.551-4.4492 27.352 0 16.551 0.64844 20.148 5 27.898 5.5 9.8516 14.699 17 25.75 20.051 10 2.8008 826.5 2.8008 836.5 0 10.93-2.9492 20.211-10.176 25.75-20.051 4.3516-7.8008 5-11.301 4.9492-27.898-0.050781-21.648-4.0508-32.25-15.051-40.051-14.602-10.449 6.0508-9.9492-434.7-9.8008-330.85 0.10156-411.8 0.60156-418.5 2.6992m-100 150v0.003906c-10.773 2.8633-19.898 10.02-25.25 19.797-3.6992 6.9492-4.4492 11.551-4.4492 27.352 0 16.551 0.64844 20.148 5 27.898 5.5 9.8516 14.699 17 25.75 20.051 10 2.8008 826.5 2.8008 836.5 0 10.93-2.9492 20.211-10.176 25.75-20.051 4.3516-7.8008 5-11.301 4.9492-27.898-0.050781-21.648-4.0508-32.25-15.051-40.051-14.602-10.449 6.0508-9.9492-434.7-9.8008-330.85 0.10156-411.8 0.60156-418.5 2.6992m50 150c-18.852 5.8984-28.5 18.801-30.199 40.398-1.3008 15.898 2.1016 25.898 15.699 46.051 61.148 90.852 159.6 157.9 279.8 190.6 53.699 14.602 89.102 18.949 154 18.949s100.3-4.3516 154-18.949c115.75-31.449 210.7-94.5 273.45-181.45 30.25-41.898 32.199-61.801 8.3008-83.301-18.398-16.551 21.301-15.148-437.6-15-330 0.10156-410.75 0.60156-417.45 2.6992m703.3 103.2c-14.449 12.301-47.852 33.25-72 45.199-31.602 15.699-58 25.5-91 33.801-45.051 11.398-66.199 13.801-121 13.801s-75.949-2.3984-121-13.801v0.003906c-31.527-7.75-62.059-19.09-91-33.801-24.148-11.949-57.551-32.898-72-45.199l-7-5.9492h582l-7 5.9492" fill="#9d7f66" fill-rule="evenodd"/>
</svg>
